# xmcd
#
# Track frame offsets:
#	150
#	4329
#	21365
#	36697
#	54163
#	71119
#	79191
#	96209
#	111459
#	129157
#	146725
#	165972
#	181081
#	202582
#	219188
#	238487
#	258175
#	276342
#	279478
#	294457
#
# Disc length: 4180 seconds
#
# Revision: 0
# Processed by: cddbd v1.5.1PL2 Copyright (c) Steve Scherf et al.
# Submitted via: dBpowerAMP V4.0
#
DISCID=25105214
DTITLE=Afta Lyfe - Destination 188
DYEAR=2003
DGENRE=Gangsta rap
TTITLE0=Morning Radio
TTITLE1=What We Bout
TTITLE2=EverWhere
TTITLE3=Infatuated feat. KukU,Volcano,Ms.V
TTITLE4=All Day
TTITLE5=Afternoon Radio feat. Sleepdogg,Vainz
TTITLE6=Groove Tonight feat. John John
TTITLE7=Grind Till I Get Mine
TTITLE8=EveryBody Feat.Lo-Key
TTITLE9=So What You Sayin
TTITLE10=Doin It feat.L-Mac
TTITLE11=In The O feat. Lady Rosha,Eklipse
TTITLE12=Sick Rip feat. Pocket Pete,Mr.Chame,Volcano
TTITLE13=Last Resorts feat. Jean Pierre
TTITLE14=Pain Or Pay Back feat. Lo-Key
TTITLE15=Northside
TTITLE16=Dazed and Confused(Tangaray)
TTITLE17=Late Night Radio feat. Tangaray
TTITLE18=Bonus
TTITLE19=Bonus 2
EXTD=
EXTT0=
EXTT1=
EXTT2=
EXTT3=
EXTT4=
EXTT5=
EXTT6=
EXTT7=
EXTT8=
EXTT9=
EXTT10=
EXTT11=
EXTT12=
EXTT13=
EXTT14=
EXTT15=
EXTT16=
EXTT17=
EXTT18=
EXTT19=
PLAYORDER=
